<svg width="64" height="64" viewBox="0 0 64 64" fill="none" xmlns="http://www.w3.org/2000/svg">
<path d="M22 43H21C10 43 1 34 1 23C1 12 10 3 21 3C27.1 3 32.3 5.7 36 10" stroke="#466E94" stroke-width="2" stroke-miterlimit="10"/>
<path d="M19 62V55C19 45 26 46 33 42" stroke="#466E94" stroke-width="2" stroke-miterlimit="10"/>
<path d="M49 42C56 46 63 45 63 55V62" stroke="#466E94" stroke-width="2" stroke-miterlimit="10"/>
<path d="M45 46L41 44L37 46L33 42L35 39L41 40L47 39L49 42L45 46Z" stroke="#466E94" stroke-width="2" stroke-miterlimit="10"/>
<path d="M46 35V39" stroke="#466E94" stroke-width="2" stroke-miterlimit="10"/>
<path d="M36 39V35" stroke="#466E94" stroke-width="2" stroke-miterlimit="10"/>
<path d="M40 53H42" stroke="#466E94" stroke-width="2" stroke-miterlimit="10"/>
<path d="M40 49H42" stroke="#466E94" stroke-width="2" stroke-miterlimit="10"/>
<path d="M50 22C50 15.9 47.1 13 41 13C34.9 13 32 15.9 32 22V26C33 33 36 35 36 35C38 36 41 36 41 36C41 36 44 36 46 35C46 35 49 33 50 26V22Z" stroke="#466E94" stroke-width="2" stroke-miterlimit="10"/>
<path d="M32 22L36 20L41 22L46 24L50 22" stroke="#466E94" stroke-width="2" stroke-miterlimit="10"/>
<path d="M27 62V56" stroke="#466E94" stroke-width="2" stroke-miterlimit="10"/>
<path d="M55 62V56" stroke="#466E94" stroke-width="2" stroke-miterlimit="10"/>
<path d="M21 26C22.6569 26 24 24.6569 24 23C24 21.3431 22.6569 20 21 20C19.3431 20 18 21.3431 18 23C18 24.6569 19.3431 26 21 26Z" stroke="#466E94" stroke-width="2" stroke-miterlimit="10" stroke-linejoin="round"/>
<path d="M29.8992 15C28.5992 13.5 26.7992 12.3 24.8992 11.7C24.5992 13.6 22.9992 15 20.9992 15C18.9992 15 17.3992 13.6 17.0992 11.7C13.5992 12.9 10.8992 15.6 9.69922 19.1C11.5992 19.4 12.9992 21.1 12.9992 23C12.9992 24.9 11.5992 26.6 9.69922 26.9C10.8992 30.4 13.5992 33.0999 17.0992 34.2999C17.3992 32.3999 19.0992 31 20.9992 31C22.9992 31 24.5992 32.3999 24.8992 34.2999C26.3992 33.7999 27.7992 33 28.9992 31.9" stroke="#466E94" stroke-width="2" stroke-miterlimit="10" stroke-linejoin="round"/>
<path d="M20 7H22" stroke="#466E94" stroke-width="2" stroke-miterlimit="10" stroke-linejoin="round"/>
<path d="M5 22V24" stroke="#466E94" stroke-width="2" stroke-miterlimit="10" stroke-linejoin="round"/>
<path d="M20 39H22" stroke="#466E94" stroke-width="2" stroke-miterlimit="10" stroke-linejoin="round"/>
</svg>
