<svg width="64" height="64" viewBox="0 0 64 64" fill="none" xmlns="http://www.w3.org/2000/svg">
<path d="M40 41H51C57.6 41 63 35.6 63 29C63 23.1 59 18 53 18C53 13 50 9 44 9H43C40.3 4.1 35 1 29 1C20.2 1 13 8.2 13 17C6.4 17 1 22.4 1 29C1 35.6 6.4 41 13 41H24" stroke="#466E94" stroke-width="2" stroke-miterlimit="10"/>
<path d="M19 18C19 11.9 24 7 29 7" stroke="#466E94" stroke-width="2" stroke-miterlimit="10"/>
<path d="M15 49H8" stroke="#466E94" stroke-width="2" stroke-miterlimit="10"/>
<path d="M29 32V45C29 47.2 27.2 49 25 49H23" stroke="#466E94" stroke-width="2" stroke-miterlimit="10"/>
<path d="M49 59H55" stroke="#466E94" stroke-width="2" stroke-miterlimit="10"/>
<path d="M35 32V55C35 57.2 36.8 59 39 59H41" stroke="#466E94" stroke-width="2" stroke-miterlimit="10"/>
<path d="M24 31H40" stroke="#466E94" stroke-width="2" stroke-miterlimit="10"/>
<path d="M5 53C7.20914 53 9 51.2091 9 49C9 46.7909 7.20914 45 5 45C2.79086 45 1 46.7909 1 49C1 51.2091 2.79086 53 5 53Z" stroke="#466E94" stroke-width="2" stroke-miterlimit="10"/>
<path d="M19 53C21.2091 53 23 51.2091 23 49C23 46.7909 21.2091 45 19 45C16.7909 45 15 46.7909 15 49C15 51.2091 16.7909 53 19 53Z" stroke="#466E94" stroke-width="2" stroke-miterlimit="10"/>
<path d="M45 63C47.2091 63 49 61.2091 49 59C49 56.7909 47.2091 55 45 55C42.7909 55 41 56.7909 41 59C41 61.2091 42.7909 63 45 63Z" stroke="#466E94" stroke-width="2" stroke-miterlimit="10"/>
<path d="M59 63C61.2091 63 63 61.2091 63 59C63 56.7909 61.2091 55 59 55C56.7909 55 55 56.7909 55 59C55 61.2091 56.7909 63 59 63Z" stroke="#466E94" stroke-width="2" stroke-miterlimit="10"/>
<path d="M42 31H44" stroke="#466E94" stroke-width="2" stroke-miterlimit="10"/>
<path d="M46 31H48" stroke="#466E94" stroke-width="2" stroke-miterlimit="10"/>
<path d="M50 31H52" stroke="#466E94" stroke-width="2" stroke-miterlimit="10"/>
<path d="M12 31H14" stroke="#466E94" stroke-width="2" stroke-miterlimit="10"/>
<path d="M16 31H18" stroke="#466E94" stroke-width="2" stroke-miterlimit="10"/>
<path d="M20 31H22" stroke="#466E94" stroke-width="2" stroke-miterlimit="10"/>
</svg>
