<svg width="64" height="64" viewBox="0 0 64 64" fill="none" xmlns="http://www.w3.org/2000/svg">
<path d="M45 27H19V37H45V27Z" stroke="#466E94" stroke-width="2" stroke-miterlimit="10"/>
<path d="M16 30H12C10.9 30 10 29.1 10 28V15" stroke="#466E94" stroke-width="2" stroke-miterlimit="10" stroke-linejoin="round"/>
<path d="M14 19L10 15L6 19" stroke="#466E94" stroke-width="2" stroke-miterlimit="10" stroke-linejoin="round"/>
<path d="M48 30H52C53.1 30 54 29.1 54 28V15" stroke="#466E94" stroke-width="2" stroke-miterlimit="10"/>
<path d="M50 19L54 15L58 19" stroke="#466E94" stroke-width="2" stroke-miterlimit="10"/>
<path d="M32 24V15" stroke="#466E94" stroke-width="2" stroke-miterlimit="10"/>
<path d="M36 19L32 15L28 19" stroke="#466E94" stroke-width="2" stroke-miterlimit="10"/>
<path d="M16 34H12C10.9 34 10 34.9 10 36V49" stroke="#466E94" stroke-width="2" stroke-miterlimit="10" stroke-linejoin="round"/>
<path d="M14 45L10 49L6 45" stroke="#466E94" stroke-width="2" stroke-miterlimit="10" stroke-linejoin="round"/>
<path d="M48 34H52C53.1 34 54 34.9 54 36V49" stroke="#466E94" stroke-width="2" stroke-miterlimit="10"/>
<path d="M50 45L54 49L58 45" stroke="#466E94" stroke-width="2" stroke-miterlimit="10"/>
<path d="M32 40V49" stroke="#466E94" stroke-width="2" stroke-miterlimit="10"/>
<path d="M36 45L32 49L28 45" stroke="#466E94" stroke-width="2" stroke-miterlimit="10"/>
<path d="M10 11C12.7614 11 15 8.76142 15 6C15 3.23858 12.7614 1 10 1C7.23858 1 5 3.23858 5 6C5 8.76142 7.23858 11 10 11Z" stroke="#466E94" stroke-width="2" stroke-miterlimit="10"/>
<path d="M32 11C34.7614 11 37 8.76142 37 6C37 3.23858 34.7614 1 32 1C29.2386 1 27 3.23858 27 6C27 8.76142 29.2386 11 32 11Z" stroke="#466E94" stroke-width="2" stroke-miterlimit="10"/>
<path d="M54 11C56.7614 11 59 8.76142 59 6C59 3.23858 56.7614 1 54 1C51.2386 1 49 3.23858 49 6C49 8.76142 51.2386 11 54 11Z" stroke="#466E94" stroke-width="2" stroke-miterlimit="10"/>
<path d="M10 63C12.7614 63 15 60.7614 15 58C15 55.2386 12.7614 53 10 53C7.23858 53 5 55.2386 5 58C5 60.7614 7.23858 63 10 63Z" stroke="#466E94" stroke-width="2" stroke-miterlimit="10"/>
<path d="M32 63C34.7614 63 37 60.7614 37 58C37 55.2386 34.7614 53 32 53C29.2386 53 27 55.2386 27 58C27 60.7614 29.2386 63 32 63Z" stroke="#466E94" stroke-width="2" stroke-miterlimit="10"/>
<path d="M54 63C56.7614 63 59 60.7614 59 58C59 55.2386 56.7614 53 54 53C51.2386 53 49 55.2386 49 58C49 60.7614 51.2386 63 54 63Z" stroke="#466E94" stroke-width="2" stroke-miterlimit="10"/>
<path d="M31 32H33" stroke="#466E94" stroke-width="2" stroke-miterlimit="10"/>
<path d="M27 32H29" stroke="#466E94" stroke-width="2" stroke-miterlimit="10"/>
<path d="M35 32H37" stroke="#466E94" stroke-width="2" stroke-miterlimit="10"/>
</svg>
