<svg width="64" height="64" viewBox="0 0 64 64" fill="none" xmlns="http://www.w3.org/2000/svg">
<path d="M58 25.5C58 29 56 32 53 32C50 32 48 29 48 25.5C48 22 49 20 53 20C57 20 58 22 58 25.5Z" stroke="#466E94" stroke-width="2" stroke-miterlimit="10"/>
<path d="M45 34L50 31" stroke="#466E94" stroke-width="2" stroke-miterlimit="10"/>
<path d="M56 31L63 35V46" stroke="#466E94" stroke-width="2" stroke-miterlimit="10"/>
<path d="M6 25.5C6 29 8 32 11 32C14 32 16 29 16 25.5C16 22 15 20 11 20C7 20 6 22 6 25.5Z" stroke="#466E94" stroke-width="2" stroke-miterlimit="10"/>
<path d="M19 34L14 31" stroke="#466E94" stroke-width="2" stroke-miterlimit="10"/>
<path d="M8 31L1 35V46" stroke="#466E94" stroke-width="2" stroke-miterlimit="10"/>
<path d="M10 58V49C10 39 17 40 24 36" stroke="#466E94" stroke-width="2" stroke-miterlimit="10"/>
<path d="M40 36C47 40 54 39 54 49V58" stroke="#466E94" stroke-width="2" stroke-miterlimit="10"/>
<path d="M36 40L32 38L28 40L24 36L26 33L32 34L38 33L40 36L36 40Z" stroke="#466E94" stroke-width="2" stroke-miterlimit="10"/>
<path d="M37 29V33" stroke="#466E94" stroke-width="2" stroke-miterlimit="10"/>
<path d="M27 33V29" stroke="#466E94" stroke-width="2" stroke-miterlimit="10"/>
<path d="M31 47H33" stroke="#466E94" stroke-width="2" stroke-miterlimit="10"/>
<path d="M31 43H33" stroke="#466E94" stroke-width="2" stroke-miterlimit="10"/>
<path d="M41 16C41 9.9 38.1 7 32 7C25.9 7 23 9.9 23 16V20C24 27 27 29 27 29C29 30 32 30 32 30C32 30 35 30 37 29C37 29 40 27 41 20V16Z" stroke="#466E94" stroke-width="2" stroke-miterlimit="10"/>
<path d="M23 16L27 14L32 16L37 18L41 16" stroke="#466E94" stroke-width="2" stroke-miterlimit="10"/>
<path d="M18 58V50" stroke="#466E94" stroke-width="2" stroke-miterlimit="10"/>
<path d="M46 58V50" stroke="#466E94" stroke-width="2" stroke-miterlimit="10"/>
</svg>
