<svg width="64" height="64" viewBox="0 0 64 64" fill="none" xmlns="http://www.w3.org/2000/svg">
<g opacity="0.87">
<path d="M22 50V9H41.9999V50" stroke="white" stroke-width="2" stroke-miterlimit="10"/>
<path d="M5 49H11" stroke="white" stroke-width="2" stroke-miterlimit="10"/>
<path d="M13 49H19" stroke="white" stroke-width="2" stroke-miterlimit="10"/>
<path d="M5 45H11" stroke="white" stroke-width="2" stroke-miterlimit="10"/>
<path d="M13 45H19" stroke="white" stroke-width="2" stroke-miterlimit="10"/>
<path d="M5 41H11" stroke="white" stroke-width="2" stroke-miterlimit="10"/>
<path d="M13 41H19" stroke="white" stroke-width="2" stroke-miterlimit="10"/>
<path d="M5 37H18.9999" stroke="white" stroke-width="2" stroke-miterlimit="10"/>
<path d="M5 33H11" stroke="white" stroke-width="2" stroke-miterlimit="10"/>
<path d="M13 33H19" stroke="white" stroke-width="2" stroke-miterlimit="10"/>
<path d="M45 49H51" stroke="white" stroke-width="2" stroke-miterlimit="10"/>
<path d="M52.9995 49H58.9995" stroke="white" stroke-width="2" stroke-miterlimit="10"/>
<path d="M45 45H51" stroke="white" stroke-width="2" stroke-miterlimit="10"/>
<path d="M52.9995 45H58.9995" stroke="white" stroke-width="2" stroke-miterlimit="10"/>
<path d="M45 41H58.9999" stroke="white" stroke-width="2" stroke-miterlimit="10"/>
<path d="M45 37H51" stroke="white" stroke-width="2" stroke-miterlimit="10"/>
<path d="M52.9995 37H58.9995" stroke="white" stroke-width="2" stroke-miterlimit="10"/>
<path d="M45 33H51" stroke="white" stroke-width="2" stroke-miterlimit="10"/>
<path d="M52.9995 33H58.9995" stroke="white" stroke-width="2" stroke-miterlimit="10"/>
<path d="M45 29H51" stroke="white" stroke-width="2" stroke-miterlimit="10"/>
<path d="M52.9995 29H58.9995" stroke="white" stroke-width="2" stroke-miterlimit="10"/>
<path d="M45 25H51" stroke="white" stroke-width="2" stroke-miterlimit="10"/>
<path d="M52.9995 25H58.9995" stroke="white" stroke-width="2" stroke-miterlimit="10"/>
<path d="M24.9995 49H38.9994" stroke="white" stroke-width="2" stroke-miterlimit="10"/>
<path d="M24.9995 45H30.9995" stroke="white" stroke-width="2" stroke-miterlimit="10"/>
<path d="M33 45H39" stroke="white" stroke-width="2" stroke-miterlimit="10"/>
<path d="M24.9995 41H30.9995" stroke="white" stroke-width="2" stroke-miterlimit="10"/>
<path d="M33 41H39" stroke="white" stroke-width="2" stroke-miterlimit="10"/>
<path d="M24.9995 37H30.9995" stroke="white" stroke-width="2" stroke-miterlimit="10"/>
<path d="M33 37H39" stroke="white" stroke-width="2" stroke-miterlimit="10"/>
<path d="M24.9995 33H30.9995" stroke="white" stroke-width="2" stroke-miterlimit="10"/>
<path d="M33 33H39" stroke="white" stroke-width="2" stroke-miterlimit="10"/>
<path d="M24.9995 29H38.9994" stroke="white" stroke-width="2" stroke-miterlimit="10"/>
<path d="M24.9995 25H30.9995" stroke="white" stroke-width="2" stroke-miterlimit="10"/>
<path d="M33 25H39" stroke="white" stroke-width="2" stroke-miterlimit="10"/>
<path d="M24.9995 21H30.9995" stroke="white" stroke-width="2" stroke-miterlimit="10"/>
<path d="M33 21H39" stroke="white" stroke-width="2" stroke-miterlimit="10"/>
<path d="M24.9995 17H30.9995" stroke="white" stroke-width="2" stroke-miterlimit="10"/>
<path d="M33 17H39" stroke="white" stroke-width="2" stroke-miterlimit="10"/>
<path d="M24.9995 13H30.9995" stroke="white" stroke-width="2" stroke-miterlimit="10"/>
<path d="M33 13H39" stroke="white" stroke-width="2" stroke-miterlimit="10"/>
<path d="M17.9999 25H6V29H17.9999V25Z" stroke="white" stroke-width="2" stroke-miterlimit="10"/>
<path d="M57.9999 17H46V21H57.9999V17Z" stroke="white" stroke-width="2" stroke-miterlimit="10"/>
<path d="M37.9999 5H26V9H37.9999V5Z" stroke="white" stroke-width="2" stroke-miterlimit="10"/>
<path d="M32 5V0" stroke="white" stroke-width="2" stroke-miterlimit="10"/>
<path d="M5.99998 63H2V29H21.9999" stroke="white" stroke-width="2" stroke-miterlimit="10"/>
<path d="M42 21H61.9999V63H57.9999" stroke="white" stroke-width="2" stroke-miterlimit="10"/>
<path d="M57.9997 53H6V63H57.9997V53Z" stroke="white" stroke-width="2" stroke-miterlimit="10"/>
<path d="M22 56V63" stroke="white" stroke-width="2" stroke-miterlimit="10"/>
<path d="M42 56V63" stroke="white" stroke-width="2" stroke-miterlimit="10"/>
<path d="M6 59H57.9997" stroke="white" stroke-width="2" stroke-miterlimit="10"/>
</g>
</svg>
