<svg width="59" height="59" viewBox="0 0 59 59" fill="none" xmlns="http://www.w3.org/2000/svg">
<path d="M52.5 0H5.83333C2.625 0 0.0291666 2.625 0.0291666 5.83333L0 58.3333L11.6667 46.6667H52.5C55.7083 46.6667 58.3333 44.0417 58.3333 40.8333V5.83333C58.3333 2.625 55.7083 0 52.5 0ZM46.6667 35H11.6667V29.1667H46.6667V35ZM46.6667 26.25H11.6667V20.4167H46.6667V26.25ZM46.6667 17.5H11.6667V11.6667H46.6667V17.5Z" fill="white"/>
<path d="M52.5 0H5.83333C2.625 0 0.0291666 2.625 0.0291666 5.83333L0 58.3333L11.6667 46.6667H52.5C55.7083 46.6667 58.3333 44.0417 58.3333 40.8333V5.83333C58.3333 2.625 55.7083 0 52.5 0ZM46.6667 35H11.6667V29.1667H46.6667V35ZM46.6667 26.25H11.6667V20.4167H46.6667V26.25ZM46.6667 17.5H11.6667V11.6667H46.6667V17.5Z" fill="white"/>
</svg>
