<svg width="64" height="64" viewBox="0 0 64 64" fill="none" xmlns="http://www.w3.org/2000/svg">
<path d="M32 41V59" stroke="#466E94" stroke-width="2" stroke-miterlimit="10" stroke-linejoin="round"/>
<path d="M42 41L48 58V59" stroke="#466E94" stroke-width="2" stroke-miterlimit="10" stroke-linejoin="round"/>
<path d="M22 41L16 58V59" stroke="#466E94" stroke-width="2" stroke-miterlimit="10" stroke-linejoin="round"/>
<path d="M59 12V41H5V12" stroke="#466E94" stroke-width="2" stroke-miterlimit="10" stroke-linejoin="round"/>
<path d="M1 9V5H25L27 1H37L39 5H63V9H1Z" stroke="#466E94" stroke-width="2" stroke-miterlimit="10" stroke-linejoin="round"/>
<path d="M29 5H35" stroke="#466E94" stroke-width="2" stroke-miterlimit="10" stroke-linejoin="round"/>
<path d="M0 59H64" stroke="#466E94" stroke-width="2" stroke-miterlimit="10" stroke-linejoin="round"/>
<path d="M26 19C26.5523 19 27 18.5523 27 18C27 17.4477 26.5523 17 26 17C25.4477 17 25 17.4477 25 18C25 18.5523 25.4477 19 26 19Z" stroke="#466E94" stroke-width="2" stroke-miterlimit="10" stroke-linejoin="round"/>
<path d="M36 33C36.5523 33 37 32.5523 37 32C37 31.4477 36.5523 31 36 31C35.4477 31 35 31.4477 35 32C35 32.5523 35.4477 33 36 33Z" stroke="#466E94" stroke-width="2" stroke-miterlimit="10" stroke-linejoin="round"/>
<path d="M31 20V18C31 15.2 28.8 13 26 13C23.2 13 21 15.2 21 18V24C21 26.8 18.8 29 16 29H10" stroke="#466E94" stroke-width="2" stroke-miterlimit="10" stroke-linejoin="round"/>
<path d="M54 21H46C43.2 21 41 23.2 41 26V32C41 34.8 38.8 37 36 37C33.2 37 31 34.8 31 32V30" stroke="#466E94" stroke-width="2" stroke-miterlimit="10" stroke-linejoin="round"/>
<path d="M50 25L54 21L50 17" stroke="#466E94" stroke-width="2" stroke-miterlimit="10" stroke-linejoin="round"/>
<path d="M31 22V24" stroke="#466E94" stroke-width="2" stroke-miterlimit="10" stroke-linejoin="round"/>
<path d="M31 26V28" stroke="#466E94" stroke-width="2" stroke-miterlimit="10" stroke-linejoin="round"/>
<path d="M8 13H10" stroke="#466E94" stroke-width="2" stroke-miterlimit="10" stroke-linejoin="round"/>
<path d="M54 13H56" stroke="#466E94" stroke-width="2" stroke-miterlimit="10" stroke-linejoin="round"/>
<path d="M54 37H56" stroke="#466E94" stroke-width="2" stroke-miterlimit="10" stroke-linejoin="round"/>
<path d="M8 37H10" stroke="#466E94" stroke-width="2" stroke-miterlimit="10" stroke-linejoin="round"/>
</svg>
