<svg width="64" height="64" viewBox="0 0 64 64" fill="none" xmlns="http://www.w3.org/2000/svg">
<path d="M49.0004 31.9999C49.0004 29.8999 50.6004 28.1999 52.6004 27.9999C52.1004 25.0999 50.9004 22.4999 49.4004 20.1999C48.7004 20.6999 47.9004 20.9999 47.0004 20.9999C44.8004 20.9999 43.0004 19.1999 43.0004 16.9999C43.0004 16.0999 43.3004 15.2999 43.8004 14.5999C41.5004 12.9999 38.8004 11.8999 36.0004 11.3999C35.8004 13.3999 34.1004 14.9999 32.0004 14.9999C29.9004 14.9999 28.2004 13.3999 28.0004 11.3999C25.1004 11.8999 22.5004 13.0999 20.2004 14.5999C20.7004 15.2999 21.0004 16.0999 21.0004 16.9999C21.0004 19.1999 19.2004 20.9999 17.0004 20.9999C16.1004 20.9999 15.3004 20.6999 14.6004 20.1999C13.0004 22.4999 11.9004 25.1999 11.4004 27.9999C13.4004 28.1999 15.0004 29.8999 15.0004 31.9999C15.0004 34.0999 13.4004 35.7999 11.4004 35.9999C11.9004 38.8999 13.1004 41.4999 14.6004 43.7999C15.3004 43.2999 16.1004 42.9999 17.0004 42.9999C19.2004 42.9999 21.0004 44.7999 21.0004 46.9999C21.0004 47.8999 20.7004 48.6999 20.2004 49.3999C22.5004 50.9999 25.2004 52.0999 28.0004 52.5999C28.2004 50.5999 29.9004 48.9999 32.0004 48.9999C34.1004 48.9999 35.8004 50.5999 36.0004 52.5999C38.9004 52.0999 41.5004 50.8999 43.8004 49.3999C43.3004 48.6999 43.0004 47.8999 43.0004 46.9999C43.0004 44.7999 44.8004 42.9999 47.0004 42.9999C47.9004 42.9999 48.7004 43.2999 49.4004 43.7999C51.0004 41.4999 52.1004 38.7999 52.6004 35.9999C50.6004 35.7999 49.0004 34.0999 49.0004 31.9999Z" stroke="#466E94" stroke-width="2" stroke-miterlimit="10" stroke-linejoin="round"/>
<path d="M31 53H33" stroke="#466E94" stroke-width="2" stroke-miterlimit="10" stroke-linejoin="round"/>
<path d="M16 47H18" stroke="#466E94" stroke-width="2" stroke-miterlimit="10" stroke-linejoin="round"/>
<path d="M10 32H12" stroke="#466E94" stroke-width="2" stroke-miterlimit="10" stroke-linejoin="round"/>
<path d="M16 17H18" stroke="#466E94" stroke-width="2" stroke-miterlimit="10" stroke-linejoin="round"/>
<path d="M31 11H33" stroke="#466E94" stroke-width="2" stroke-miterlimit="10" stroke-linejoin="round"/>
<path d="M46 17H48" stroke="#466E94" stroke-width="2" stroke-miterlimit="10" stroke-linejoin="round"/>
<path d="M46 47H48" stroke="#466E94" stroke-width="2" stroke-miterlimit="10" stroke-linejoin="round"/>
<path d="M52 32H54" stroke="#466E94" stroke-width="2" stroke-miterlimit="10" stroke-linejoin="round"/>
<path d="M32 43C38.0751 43 43 38.0751 43 32C43 25.9249 38.0751 21 32 21C25.9249 21 21 25.9249 21 32C21 38.0751 25.9249 43 32 43Z" stroke="#466E94" stroke-width="2" stroke-miterlimit="10" stroke-linejoin="round"/>
<path d="M32 37C34.7614 37 37 34.7614 37 32C37 29.2386 34.7614 27 32 27C29.2386 27 27 29.2386 27 32C27 34.7614 29.2386 37 32 37Z" stroke="#466E94" stroke-width="2" stroke-miterlimit="10" stroke-linejoin="round"/>
<path d="M32 0V8" stroke="#466E94" stroke-width="2" stroke-miterlimit="10" stroke-linejoin="round"/>
<path d="M8 32H0" stroke="#466E94" stroke-width="2" stroke-miterlimit="10" stroke-linejoin="round"/>
<path d="M56 32H64" stroke="#466E94" stroke-width="2" stroke-miterlimit="10" stroke-linejoin="round"/>
<path d="M32 56V64" stroke="#466E94" stroke-width="2" stroke-miterlimit="10" stroke-linejoin="round"/>
<path d="M14 17H12" stroke="#466E94" stroke-width="2" stroke-miterlimit="10" stroke-linejoin="round"/>
<path d="M10 17H8" stroke="#466E94" stroke-width="2" stroke-miterlimit="10" stroke-linejoin="round"/>
<path d="M6 17H4" stroke="#466E94" stroke-width="2" stroke-miterlimit="10" stroke-linejoin="round"/>
<path d="M2 17H0" stroke="#466E94" stroke-width="2" stroke-miterlimit="10" stroke-linejoin="round"/>
<path d="M64 17H62" stroke="#466E94" stroke-width="2" stroke-miterlimit="10" stroke-linejoin="round"/>
<path d="M60 17H58" stroke="#466E94" stroke-width="2" stroke-miterlimit="10" stroke-linejoin="round"/>
<path d="M56 17H54" stroke="#466E94" stroke-width="2" stroke-miterlimit="10" stroke-linejoin="round"/>
<path d="M52 17H50" stroke="#466E94" stroke-width="2" stroke-miterlimit="10" stroke-linejoin="round"/>
<path d="M14 47H12" stroke="#466E94" stroke-width="2" stroke-miterlimit="10" stroke-linejoin="round"/>
<path d="M10 47H8" stroke="#466E94" stroke-width="2" stroke-miterlimit="10" stroke-linejoin="round"/>
<path d="M6 47H4" stroke="#466E94" stroke-width="2" stroke-miterlimit="10" stroke-linejoin="round"/>
<path d="M2 47H0" stroke="#466E94" stroke-width="2" stroke-miterlimit="10" stroke-linejoin="round"/>
<path d="M64 47H62" stroke="#466E94" stroke-width="2" stroke-miterlimit="10" stroke-linejoin="round"/>
<path d="M60 47H58" stroke="#466E94" stroke-width="2" stroke-miterlimit="10" stroke-linejoin="round"/>
<path d="M56 47H54" stroke="#466E94" stroke-width="2" stroke-miterlimit="10" stroke-linejoin="round"/>
<path d="M52 47H50" stroke="#466E94" stroke-width="2" stroke-miterlimit="10" stroke-linejoin="round"/>
<path d="M17 14V12" stroke="#466E94" stroke-width="2" stroke-miterlimit="10" stroke-linejoin="round"/>
<path d="M17 10V8" stroke="#466E94" stroke-width="2" stroke-miterlimit="10" stroke-linejoin="round"/>
<path d="M17 6V4" stroke="#466E94" stroke-width="2" stroke-miterlimit="10" stroke-linejoin="round"/>
<path d="M17 2V0" stroke="#466E94" stroke-width="2" stroke-miterlimit="10" stroke-linejoin="round"/>
<path d="M47 14V12" stroke="#466E94" stroke-width="2" stroke-miterlimit="10" stroke-linejoin="round"/>
<path d="M47 10V8" stroke="#466E94" stroke-width="2" stroke-miterlimit="10" stroke-linejoin="round"/>
<path d="M47 6V4" stroke="#466E94" stroke-width="2" stroke-miterlimit="10" stroke-linejoin="round"/>
<path d="M47 2V0" stroke="#466E94" stroke-width="2" stroke-miterlimit="10" stroke-linejoin="round"/>
<path d="M17 64V62" stroke="#466E94" stroke-width="2" stroke-miterlimit="10" stroke-linejoin="round"/>
<path d="M17 60V58" stroke="#466E94" stroke-width="2" stroke-miterlimit="10" stroke-linejoin="round"/>
<path d="M17 56V54" stroke="#466E94" stroke-width="2" stroke-miterlimit="10" stroke-linejoin="round"/>
<path d="M17 52V50" stroke="#466E94" stroke-width="2" stroke-miterlimit="10" stroke-linejoin="round"/>
<path d="M47 64V62" stroke="#466E94" stroke-width="2" stroke-miterlimit="10" stroke-linejoin="round"/>
<path d="M47 60V58" stroke="#466E94" stroke-width="2" stroke-miterlimit="10" stroke-linejoin="round"/>
<path d="M47 56V54" stroke="#466E94" stroke-width="2" stroke-miterlimit="10" stroke-linejoin="round"/>
<path d="M47 52V50" stroke="#466E94" stroke-width="2" stroke-miterlimit="10" stroke-linejoin="round"/>
</svg>
