<svg width="613" height="562" viewBox="0 0 613 562" fill="none" xmlns="http://www.w3.org/2000/svg">
    <path d="M111.767 1.53489C50.3354 1.53488 0.534912 51.3354 0.534907 112.767C0.534901 174.199 50.3354 224 111.767 224C173.199 224 223 174.199 223 112.767C223 51.3354 173.2 1.53489 111.767 1.53489Z"
          fill="#2B3949"/>
    <path d="M111.767 1.53489C50.3354 1.53488 0.534912 51.3354 0.534907 112.767C0.534901 174.199 50.3354 224 111.767 224C173.199 224 223 174.199 223 112.767C223 51.3354 173.2 1.53489 111.767 1.53489Z"
          fill="url(#paint0_linear)" fill-opacity="0.08"/>
    <path d="M111.767 1.53489C50.3354 1.53488 0.534912 51.3354 0.534907 112.767C0.534901 174.199 50.3354 224 111.767 224C173.199 224 223 174.199 223 112.767C223 51.3354 173.2 1.53489 111.767 1.53489Z"
          stroke="white" stroke-miterlimit="10"/>
    <path d="M105.801 77.333C103.701 79.1101 102.328 81.8564 102.328 84.8451C102.328 90.3379 106.771 94.7806 112.264 94.7806C117.756 94.7806 122.199 90.3379 122.199 84.8451C122.199 81.9372 120.907 79.1908 118.887 77.333"
          stroke="white" stroke-width="1.5" stroke-miterlimit="10" stroke-linejoin="round"/>
    <path d="M112.264 80.8057C110.002 80.8057 108.145 82.6635 108.145 84.9252C108.145 87.1869 110.002 89.0448 112.264 89.0448C114.526 89.0448 116.384 87.1869 116.384 84.9252"
          stroke="white" stroke-width="1.5" stroke-miterlimit="10" stroke-linecap="round" stroke-linejoin="round"/>
    <path d="M89.8887 88.3178C89.8887 88.3178 99.9049 101 112.264 101C124.622 101 134.638 88.6409 134.638 88.6409C134.638 88.6409 124.622 76.2822 112.264 76.2822C99.9049 76.2822 89.8887 88.3178 89.8887 88.3178Z"
          stroke="white" stroke-width="1.5" stroke-miterlimit="10" stroke-linejoin="round"/>
    <path d="M130.276 78.6253L135.608 77.7368V71.0324L129.307 69.9823C128.903 68.3668 128.257 66.7513 127.368 65.3781L131.084 60.2084L126.399 55.5234L121.23 59.2391C119.776 58.4314 118.241 57.7852 116.625 57.3005L115.575 51H108.871L107.902 57.3005C106.286 57.7044 104.67 58.3506 103.297 59.2391L98.1277 55.5234L93.4427 60.2084L97.1583 65.3781C96.3506 66.7513 95.7044 68.3668 95.3005 69.9823L89 71.0324V77.7368L94.0081 78.6253"
          stroke="white" stroke-width="1.5" stroke-miterlimit="10" stroke-linecap="round" stroke-linejoin="round"/>
    <path d="M101.197 74.2635C101.197 68.1246 106.125 63.1973 112.264 63.1973C118.402 63.1973 123.33 68.1246 123.33 74.2635"
          stroke="white" stroke-width="1.5" stroke-miterlimit="10" stroke-linecap="round" stroke-linejoin="round"/>
    <path d="M62.2723 137H64.1723V124.32H68.9323V122.72H57.5123V124.32H62.2723V137ZM75.9501 133.72C75.6501 135.06 74.6701 135.74 73.2701 135.74C71.0101 135.74 69.9901 134.14 70.0501 132.34H77.7901C77.8901 129.84 76.7701 126.42 73.1101 126.42C70.2901 126.42 68.2501 128.7 68.2501 131.8C68.3501 134.96 69.9101 137.24 73.2101 137.24C75.5301 137.24 77.1701 136 77.6301 133.72H75.9501ZM70.0501 130.84C70.1701 129.26 71.2301 127.92 73.0101 127.92C74.6901 127.92 75.9101 129.22 75.9901 130.84H70.0501ZM89.1323 129.98C88.8923 127.52 87.0123 126.42 84.6723 126.42C81.3923 126.42 79.7923 128.86 79.7923 131.96C79.7923 135.04 81.4723 137.24 84.6323 137.24C87.2323 137.24 88.8123 135.74 89.1923 133.22H87.4523C87.2323 134.78 86.2523 135.74 84.6123 135.74C82.4523 135.74 81.5923 133.86 81.5923 131.96C81.5923 129.86 82.3523 127.92 84.8123 127.92C86.2123 127.92 87.1123 128.68 87.3723 129.98H89.1323ZM91.8945 137H93.5945V131.16C93.5945 129.3 94.5945 127.92 96.6545 127.92C97.9545 127.92 98.7545 128.74 98.7545 130V137H100.454V130.2C100.454 127.98 99.6145 126.42 96.8945 126.42C95.6545 126.42 94.1945 126.94 93.6345 128.18H93.5945V122.72H91.8945V137ZM103.808 137H105.508V131.16C105.508 129.3 106.508 127.92 108.568 127.92C109.868 127.92 110.668 128.74 110.668 130V137H112.368V130.2C112.368 127.98 111.528 126.42 108.808 126.42C107.328 126.42 106.168 127.02 105.448 128.3H105.408V126.66H103.808V137ZM115.161 131.84C115.161 134.86 116.901 137.24 120.181 137.24C123.461 137.24 125.201 134.86 125.201 131.84C125.201 128.8 123.461 126.42 120.181 126.42C116.901 126.42 115.161 128.8 115.161 131.84ZM116.961 131.84C116.961 129.32 118.401 127.92 120.181 127.92C121.961 127.92 123.401 129.32 123.401 131.84C123.401 134.34 121.961 135.74 120.181 135.74C118.401 135.74 116.961 134.34 116.961 131.84ZM128.105 137H129.805V122.72H128.105V137ZM132.679 131.84C132.679 134.86 134.419 137.24 137.699 137.24C140.979 137.24 142.719 134.86 142.719 131.84C142.719 128.8 140.979 126.42 137.699 126.42C134.419 126.42 132.679 128.8 132.679 131.84ZM134.479 131.84C134.479 129.32 135.919 127.92 137.699 127.92C139.479 127.92 140.919 129.32 140.919 131.84C140.919 134.34 139.479 135.74 137.699 135.74C135.919 135.74 134.479 134.34 134.479 131.84ZM149.683 135.62C147.443 135.62 146.763 133.54 146.763 131.68C146.763 129.7 147.643 127.92 149.823 127.92C151.963 127.92 152.763 129.8 152.763 131.62C152.763 133.56 151.923 135.62 149.683 135.62ZM154.443 126.66H152.843V128.14H152.823C152.203 127 151.043 126.42 149.743 126.42C146.163 126.42 144.963 129.44 144.963 131.88C144.963 134.7 146.503 137.12 149.583 137.12C150.883 137.12 152.243 136.5 152.803 135.24H152.843V135.92C152.843 138.24 151.963 139.84 149.743 139.84C148.623 139.84 147.143 139.4 147.063 138.16H145.363C145.463 140.42 147.703 141.2 149.643 141.2C152.903 141.2 154.443 139.48 154.443 136.12V126.66ZM166.368 126.66H164.568L161.668 135.12H161.628L158.608 126.66H156.688L160.788 136.94L160.088 138.7C159.768 139.3 159.388 139.64 158.688 139.64C158.348 139.64 158.008 139.5 157.688 139.4V140.96C158.068 141.1 158.468 141.14 158.868 141.14C160.388 141.14 161.088 140.4 161.868 138.38L166.368 126.66ZM83.2126 154.9C83.0926 151.76 80.8726 150.38 77.9526 150.38C75.3526 150.38 72.7726 151.66 72.7726 154.56C72.7726 157.18 75.0726 157.84 77.3526 158.34C79.6326 158.84 81.9126 159.18 81.9126 161.14C81.9126 163.2 80.0126 163.74 78.2926 163.74C76.1326 163.74 74.1326 162.7 74.1326 160.3H72.3326C72.3326 163.78 75.0326 165.34 78.2326 165.34C80.8326 165.34 83.8126 164.12 83.8126 161.08C83.8126 158.28 81.5326 157.48 79.2526 156.96C76.9526 156.44 74.6726 156.18 74.6726 154.42C74.6726 152.56 76.2726 151.98 77.8726 151.98C79.8326 151.98 81.1926 152.86 81.4126 154.9H83.2126ZM89.0013 151.56H87.3013V154.66H85.5413V156.16H87.3013V162.74C87.3013 164.64 88.0013 165 89.7613 165H91.0613V163.5H90.2813C89.2213 163.5 89.0013 163.36 89.0013 162.58V156.16H91.0613V154.66H89.0013V151.56ZM93.6899 165H95.3899V160.4C95.3899 157.78 96.3899 156.22 99.1299 156.22V154.42C97.2899 154.36 96.1499 155.18 95.3299 156.84H95.2899V154.66H93.6899V165ZM107.61 161.4C107.61 162.34 106.69 163.74 104.45 163.74C103.41 163.74 102.45 163.34 102.45 162.22C102.45 160.96 103.41 160.56 104.53 160.36C105.67 160.16 106.95 160.14 107.61 159.66V161.4ZM110.37 163.64C110.15 163.72 109.99 163.74 109.85 163.74C109.31 163.74 109.31 163.38 109.31 162.58V157.26C109.31 154.84 107.29 154.42 105.43 154.42C103.13 154.42 101.15 155.32 101.05 157.88H102.75C102.83 156.36 103.89 155.92 105.33 155.92C106.41 155.92 107.63 156.16 107.63 157.64C107.63 158.92 106.03 158.8 104.15 159.16C102.39 159.5 100.65 160 100.65 162.34C100.65 164.4 102.19 165.24 104.07 165.24C105.51 165.24 106.77 164.74 107.71 163.64C107.71 164.76 108.27 165.24 109.15 165.24C109.69 165.24 110.07 165.14 110.37 164.96V163.64ZM115.112 151.56H113.412V154.66H111.652V156.16H113.412V162.74C113.412 164.64 114.112 165 115.872 165H117.172V163.5H116.392C115.332 163.5 115.112 163.36 115.112 162.58V156.16H117.172V154.66H115.112V151.56ZM127.001 161.72C126.701 163.06 125.721 163.74 124.321 163.74C122.061 163.74 121.041 162.14 121.101 160.34H128.841C128.941 157.84 127.821 154.42 124.161 154.42C121.341 154.42 119.301 156.7 119.301 159.8C119.401 162.96 120.961 165.24 124.261 165.24C126.581 165.24 128.221 164 128.681 161.72H127.001ZM121.101 158.84C121.221 157.26 122.281 155.92 124.061 155.92C125.741 155.92 126.961 157.22 127.041 158.84H121.101ZM135.563 163.62C133.323 163.62 132.643 161.54 132.643 159.68C132.643 157.7 133.523 155.92 135.703 155.92C137.843 155.92 138.643 157.8 138.643 159.62C138.643 161.56 137.803 163.62 135.563 163.62ZM140.323 154.66H138.723V156.14H138.703C138.083 155 136.923 154.42 135.623 154.42C132.043 154.42 130.843 157.44 130.843 159.88C130.843 162.7 132.383 165.12 135.463 165.12C136.763 165.12 138.123 164.5 138.683 163.24H138.723V163.92C138.723 166.24 137.843 167.84 135.623 167.84C134.503 167.84 133.023 167.4 132.943 166.16H131.243C131.343 168.42 133.583 169.2 135.523 169.2C138.783 169.2 140.323 167.48 140.323 164.12V154.66ZM152.247 154.66H150.447L147.547 163.12H147.507L144.487 154.66H142.567L146.667 164.94L145.967 166.7C145.647 167.3 145.267 167.64 144.567 167.64C144.227 167.64 143.887 167.5 143.567 167.4V168.96C143.947 169.1 144.347 169.14 144.747 169.14C146.267 169.14 146.967 168.4 147.747 166.38L152.247 154.66Z"
          fill="white"/>
    <path d="M305.767 338.535C244.335 338.535 194.535 388.335 194.535 449.767C194.535 511.199 244.335 561 305.767 561C367.199 561 417 511.199 417 449.767C417 388.335 367.2 338.535 305.767 338.535Z"
          fill="#2B3949"/>
    <path d="M305.767 338.535C244.335 338.535 194.535 388.335 194.535 449.767C194.535 511.199 244.335 561 305.767 561C367.199 561 417 511.199 417 449.767C417 388.335 367.2 338.535 305.767 338.535Z"
          fill="url(#paint1_linear)" fill-opacity="0.08"/>
    <path d="M305.767 338.535C244.335 338.535 194.535 388.335 194.535 449.767C194.535 511.199 244.335 561 305.767 561C367.199 561 417 511.199 417 449.767C417 388.335 367.2 338.535 305.767 338.535Z"
          stroke="white" stroke-miterlimit="10"/>
    <path d="M266.113 465.46H270.453C272.053 465.46 273.553 465.98 273.553 467.84C273.553 469.4 272.513 470.4 270.873 470.4H266.113V465.46ZM264.213 472H271.113C273.953 472 275.453 470 275.453 467.9C275.453 466.14 274.493 464.82 272.733 464.46V464.42C274.053 463.88 274.853 462.74 274.853 461.22C274.853 459.82 274.113 458.8 273.173 458.24C272.313 457.72 270.653 457.72 269.393 457.72H264.213V472ZM266.113 459.32H269.913C271.553 459.32 272.953 459.6 272.953 461.58C272.953 463.08 272.073 463.86 269.913 463.86H266.113V459.32ZM286.985 461.66H285.285V467.5C285.285 469.36 284.285 470.74 282.225 470.74C280.925 470.74 280.125 469.92 280.125 468.66V461.66H278.425V468.46C278.425 470.68 279.265 472.24 281.985 472.24C283.465 472.24 284.625 471.64 285.345 470.36H285.385V472H286.985V461.66ZM289.678 468.74C289.778 471.3 291.738 472.24 294.058 472.24C296.158 472.24 298.458 471.44 298.458 468.98C298.458 466.98 296.778 466.42 295.078 466.04C293.498 465.66 291.698 465.46 291.698 464.24C291.698 463.2 292.878 462.92 293.898 462.92C295.018 462.92 296.178 463.34 296.298 464.66H297.998C297.858 462.14 296.038 461.42 293.758 461.42C291.958 461.42 289.898 462.28 289.898 464.36C289.898 466.34 291.598 466.9 293.278 467.28C294.978 467.66 296.658 467.88 296.658 469.2C296.658 470.5 295.218 470.74 294.158 470.74C292.758 470.74 291.438 470.26 291.378 468.74H289.678ZM301.238 472H302.938V461.66H301.238V472ZM302.938 457.72H301.238V459.8H302.938V457.72ZM306.371 472H308.071V466.16C308.071 464.3 309.071 462.92 311.131 462.92C312.431 462.92 313.231 463.74 313.231 465V472H314.931V465.2C314.931 462.98 314.091 461.42 311.371 461.42C309.891 461.42 308.731 462.02 308.011 463.3H307.971V461.66H306.371V472ZM325.425 468.72C325.125 470.06 324.145 470.74 322.745 470.74C320.485 470.74 319.465 469.14 319.525 467.34H327.265C327.365 464.84 326.245 461.42 322.585 461.42C319.765 461.42 317.725 463.7 317.725 466.8C317.825 469.96 319.385 472.24 322.685 472.24C325.005 472.24 326.645 471 327.105 468.72H325.425ZM319.525 465.84C319.645 464.26 320.705 462.92 322.485 462.92C324.165 462.92 325.385 464.22 325.465 465.84H319.525ZM329.167 468.74C329.267 471.3 331.227 472.24 333.547 472.24C335.647 472.24 337.947 471.44 337.947 468.98C337.947 466.98 336.267 466.42 334.567 466.04C332.987 465.66 331.187 465.46 331.187 464.24C331.187 463.2 332.367 462.92 333.387 462.92C334.507 462.92 335.667 463.34 335.787 464.66H337.487C337.347 462.14 335.527 461.42 333.247 461.42C331.447 461.42 329.387 462.28 329.387 464.36C329.387 466.34 331.087 466.9 332.767 467.28C334.467 467.66 336.147 467.88 336.147 469.2C336.147 470.5 334.707 470.74 333.647 470.74C332.247 470.74 330.927 470.26 330.867 468.74H329.167ZM339.967 468.74C340.067 471.3 342.027 472.24 344.347 472.24C346.447 472.24 348.747 471.44 348.747 468.98C348.747 466.98 347.067 466.42 345.367 466.04C343.787 465.66 341.987 465.46 341.987 464.24C341.987 463.2 343.167 462.92 344.187 462.92C345.307 462.92 346.467 463.34 346.587 464.66H348.287C348.147 462.14 346.327 461.42 344.047 461.42C342.247 461.42 340.187 462.28 340.187 464.36C340.187 466.34 341.887 466.9 343.567 467.28C345.267 467.66 346.947 467.88 346.947 469.2C346.947 470.5 345.507 470.74 344.447 470.74C343.047 470.74 341.727 470.26 341.667 468.74H339.967ZM257.866 500H259.766V494.16H264.126C266.966 494.18 268.506 492.58 268.506 489.94C268.506 487.3 266.966 485.72 264.126 485.72H257.866V500ZM259.766 487.32H263.486C265.626 487.32 266.606 488.24 266.606 489.94C266.606 491.64 265.626 492.58 263.486 492.56H259.766V487.32ZM271.295 500H272.995V495.4C272.995 492.78 273.995 491.22 276.735 491.22V489.42C274.895 489.36 273.755 490.18 272.935 491.84H272.895V489.66H271.295V500ZM277.903 494.84C277.903 497.86 279.643 500.24 282.923 500.24C286.203 500.24 287.943 497.86 287.943 494.84C287.943 491.8 286.203 489.42 282.923 489.42C279.643 489.42 277.903 491.8 277.903 494.84ZM279.703 494.84C279.703 492.32 281.143 490.92 282.923 490.92C284.703 490.92 286.143 492.32 286.143 494.84C286.143 497.34 284.703 498.74 282.923 498.74C281.143 498.74 279.703 497.34 279.703 494.84ZM299.528 492.98C299.288 490.52 297.408 489.42 295.068 489.42C291.788 489.42 290.188 491.86 290.188 494.96C290.188 498.04 291.868 500.24 295.028 500.24C297.628 500.24 299.208 498.74 299.588 496.22H297.848C297.628 497.78 296.648 498.74 295.008 498.74C292.848 498.74 291.988 496.86 291.988 494.96C291.988 492.86 292.748 490.92 295.208 490.92C296.608 490.92 297.508 491.68 297.768 492.98H299.528ZM309.43 496.72C309.13 498.06 308.15 498.74 306.75 498.74C304.49 498.74 303.47 497.14 303.53 495.34H311.27C311.37 492.84 310.25 489.42 306.59 489.42C303.77 489.42 301.73 491.7 301.73 494.8C301.83 497.96 303.39 500.24 306.69 500.24C309.01 500.24 310.65 499 311.11 496.72H309.43ZM303.53 493.84C303.65 492.26 304.71 490.92 306.49 490.92C308.17 490.92 309.39 492.22 309.47 493.84H303.53ZM313.172 496.74C313.272 499.3 315.232 500.24 317.552 500.24C319.652 500.24 321.952 499.44 321.952 496.98C321.952 494.98 320.272 494.42 318.572 494.04C316.992 493.66 315.192 493.46 315.192 492.24C315.192 491.2 316.372 490.92 317.392 490.92C318.512 490.92 319.672 491.34 319.792 492.66H321.492C321.352 490.14 319.532 489.42 317.252 489.42C315.452 489.42 313.392 490.28 313.392 492.36C313.392 494.34 315.092 494.9 316.772 495.28C318.472 495.66 320.152 495.88 320.152 497.2C320.152 498.5 318.712 498.74 317.652 498.74C316.252 498.74 314.932 498.26 314.872 496.74H313.172ZM323.972 496.74C324.072 499.3 326.032 500.24 328.352 500.24C330.452 500.24 332.752 499.44 332.752 496.98C332.752 494.98 331.072 494.42 329.372 494.04C327.792 493.66 325.992 493.46 325.992 492.24C325.992 491.2 327.172 490.92 328.192 490.92C329.312 490.92 330.472 491.34 330.592 492.66H332.292C332.152 490.14 330.332 489.42 328.052 489.42C326.252 489.42 324.192 490.28 324.192 492.36C324.192 494.34 325.892 494.9 327.572 495.28C329.272 495.66 330.952 495.88 330.952 497.2C330.952 498.5 329.512 498.74 328.452 498.74C327.052 498.74 325.732 498.26 325.672 496.74H323.972ZM342.572 496.72C342.272 498.06 341.292 498.74 339.892 498.74C337.632 498.74 336.612 497.14 336.672 495.34H344.412C344.512 492.84 343.392 489.42 339.732 489.42C336.912 489.42 334.872 491.7 334.872 494.8C334.972 497.96 336.532 500.24 339.832 500.24C342.152 500.24 343.792 499 344.252 496.72H342.572ZM336.672 493.84C336.792 492.26 337.852 490.92 339.632 490.92C341.312 490.92 342.532 492.22 342.612 493.84H336.672ZM346.314 496.74C346.414 499.3 348.374 500.24 350.694 500.24C352.794 500.24 355.094 499.44 355.094 496.98C355.094 494.98 353.414 494.42 351.714 494.04C350.134 493.66 348.334 493.46 348.334 492.24C348.334 491.2 349.514 490.92 350.534 490.92C351.654 490.92 352.814 491.34 352.934 492.66H354.634C354.494 490.14 352.674 489.42 350.394 489.42C348.594 489.42 346.534 490.28 346.534 492.36C346.534 494.34 348.234 494.9 349.914 495.28C351.614 495.66 353.294 495.88 353.294 497.2C353.294 498.5 351.854 498.74 350.794 498.74C349.394 498.74 348.074 498.26 348.014 496.74H346.314Z"
          fill="white"/>
    <path d="M319.359 414.567C317.622 424.328 309.102 431.69 298.845 431.69C287.347 431.69 278 422.343 278 410.845C278 399.347 287.347 390 298.845 390C309.102 390 317.622 397.362 319.359 407.123"
          stroke="white" stroke-width="1.5" stroke-miterlimit="10" stroke-linejoin="round"/>
    <path d="M311.087 414.567C309.515 419.778 304.635 423.583 298.927 423.583C291.896 423.583 286.271 417.876 286.271 410.927C286.271 403.896 291.979 398.271 298.927 398.271C304.635 398.271 309.432 401.994 311.004 407.205"
          stroke="white" stroke-width="1.5" stroke-miterlimit="10" stroke-linejoin="round"/>
    <path d="M302.65 414.484C301.74 415.394 300.417 415.973 299.01 415.973C296.115 415.973 293.882 413.657 293.882 410.845C293.882 407.95 296.198 405.716 299.01 405.716C300.417 405.716 301.657 406.213 302.567 407.123"
          stroke="white" stroke-width="1.5" stroke-miterlimit="10" stroke-linejoin="round"/>
    <path d="M299.011 410.761H330.113" stroke="white" stroke-width="1.5" stroke-miterlimit="10" stroke-linecap="round"
          stroke-linejoin="round"/>
    <path d="M330.112 410.761L334 405.964" stroke="white" stroke-width="1.5" stroke-miterlimit="10"
          stroke-linecap="round" stroke-linejoin="round"/>
    <path d="M334 415.559L330.112 410.761" stroke="white" stroke-width="1.5" stroke-miterlimit="10"
          stroke-linecap="round" stroke-linejoin="round"/>
    <path d="M322.914 410.761L326.719 405.964" stroke="white" stroke-width="1.5" stroke-miterlimit="10"
          stroke-linecap="round" stroke-linejoin="round"/>
    <path d="M326.719 415.559L322.914 410.761" stroke="white" stroke-width="1.5" stroke-miterlimit="10"
          stroke-linecap="round" stroke-linejoin="round"/>
    <path d="M289.581 429.622L285.858 435.909H280.564L283.873 430.367" stroke="white" stroke-width="1.5"
          stroke-miterlimit="10"/>
    <path d="M311.998 427.389L317.127 435.909H311.915L310.096 432.931" stroke="white" stroke-width="1.5"
          stroke-miterlimit="10"/>
    <path d="M500.767 1.53489C439.335 1.53488 389.535 51.3354 389.535 112.767C389.535 174.199 439.335 224 500.767 224C562.199 224 612 174.199 612 112.767C612 51.3354 562.2 1.53489 500.767 1.53489Z"
          fill="#2B3949"/>
    <path d="M500.767 1.53489C439.335 1.53488 389.535 51.3354 389.535 112.767C389.535 174.199 439.335 224 500.767 224C562.199 224 612 174.199 612 112.767C612 51.3354 562.2 1.53489 500.767 1.53489Z"
          fill="url(#paint2_linear)" fill-opacity="0.08"/>
    <path d="M500.767 1.53489C439.335 1.53488 389.535 51.3354 389.535 112.767C389.535 174.199 439.335 224 500.767 224C562.199 224 612 174.199 612 112.767C612 51.3354 562.2 1.53489 500.767 1.53489Z"
          stroke="white" stroke-miterlimit="10"/>
    <path d="M461.613 130.46H465.953C467.553 130.46 469.053 130.98 469.053 132.84C469.053 134.4 468.013 135.4 466.373 135.4H461.613V130.46ZM459.713 137H466.613C469.453 137 470.953 135 470.953 132.9C470.953 131.14 469.993 129.82 468.233 129.46V129.42C469.553 128.88 470.353 127.74 470.353 126.22C470.353 124.82 469.613 123.8 468.673 123.24C467.813 122.72 466.153 122.72 464.893 122.72H459.713V137ZM461.613 124.32H465.413C467.053 124.32 468.453 124.6 468.453 126.58C468.453 128.08 467.573 128.86 465.413 128.86H461.613V124.32ZM482.485 126.66H480.785V132.5C480.785 134.36 479.785 135.74 477.725 135.74C476.425 135.74 475.625 134.92 475.625 133.66V126.66H473.925V133.46C473.925 135.68 474.765 137.24 477.485 137.24C478.965 137.24 480.125 136.64 480.845 135.36H480.885V137H482.485V126.66ZM485.178 133.74C485.278 136.3 487.238 137.24 489.558 137.24C491.658 137.24 493.958 136.44 493.958 133.98C493.958 131.98 492.278 131.42 490.578 131.04C488.998 130.66 487.198 130.46 487.198 129.24C487.198 128.2 488.378 127.92 489.398 127.92C490.518 127.92 491.678 128.34 491.798 129.66H493.498C493.358 127.14 491.538 126.42 489.258 126.42C487.458 126.42 485.398 127.28 485.398 129.36C485.398 131.34 487.098 131.9 488.778 132.28C490.478 132.66 492.158 132.88 492.158 134.2C492.158 135.5 490.718 135.74 489.658 135.74C488.258 135.74 486.938 135.26 486.878 133.74H485.178ZM496.738 137H498.438V126.66H496.738V137ZM498.438 122.72H496.738V124.8H498.438V122.72ZM501.871 137H503.571V131.16C503.571 129.3 504.571 127.92 506.631 127.92C507.931 127.92 508.731 128.74 508.731 130V137H510.431V130.2C510.431 127.98 509.591 126.42 506.871 126.42C505.391 126.42 504.231 127.02 503.511 128.3H503.471V126.66H501.871V137ZM520.925 133.72C520.625 135.06 519.645 135.74 518.245 135.74C515.985 135.74 514.965 134.14 515.025 132.34H522.765C522.865 129.84 521.745 126.42 518.085 126.42C515.265 126.42 513.225 128.7 513.225 131.8C513.325 134.96 514.885 137.24 518.185 137.24C520.505 137.24 522.145 136 522.605 133.72H520.925ZM515.025 130.84C515.145 129.26 516.205 127.92 517.985 127.92C519.665 127.92 520.885 129.22 520.965 130.84H515.025ZM524.667 133.74C524.767 136.3 526.727 137.24 529.047 137.24C531.147 137.24 533.447 136.44 533.447 133.98C533.447 131.98 531.767 131.42 530.067 131.04C528.487 130.66 526.687 130.46 526.687 129.24C526.687 128.2 527.867 127.92 528.887 127.92C530.007 127.92 531.167 128.34 531.287 129.66H532.987C532.847 127.14 531.027 126.42 528.747 126.42C526.947 126.42 524.887 127.28 524.887 129.36C524.887 131.34 526.587 131.9 528.267 132.28C529.967 132.66 531.647 132.88 531.647 134.2C531.647 135.5 530.207 135.74 529.147 135.74C527.747 135.74 526.427 135.26 526.367 133.74H524.667ZM535.467 133.74C535.567 136.3 537.527 137.24 539.847 137.24C541.947 137.24 544.247 136.44 544.247 133.98C544.247 131.98 542.567 131.42 540.867 131.04C539.287 130.66 537.487 130.46 537.487 129.24C537.487 128.2 538.667 127.92 539.687 127.92C540.807 127.92 541.967 128.34 542.087 129.66H543.787C543.647 127.14 541.827 126.42 539.547 126.42C537.747 126.42 535.687 127.28 535.687 129.36C535.687 131.34 537.387 131.9 539.067 132.28C540.767 132.66 542.447 132.88 542.447 134.2C542.447 135.5 541.007 135.74 539.947 135.74C538.547 135.74 537.227 135.26 537.167 133.74H535.467ZM472.713 154.9C472.593 151.76 470.373 150.38 467.453 150.38C464.853 150.38 462.273 151.66 462.273 154.56C462.273 157.18 464.573 157.84 466.853 158.34C469.133 158.84 471.413 159.18 471.413 161.14C471.413 163.2 469.513 163.74 467.793 163.74C465.633 163.74 463.633 162.7 463.633 160.3H461.833C461.833 163.78 464.533 165.34 467.733 165.34C470.333 165.34 473.313 164.12 473.313 161.08C473.313 158.28 471.033 157.48 468.753 156.96C466.453 156.44 464.173 156.18 464.173 154.42C464.173 152.56 465.773 151.98 467.373 151.98C469.333 151.98 470.693 152.86 470.913 154.9H472.713ZM478.501 151.56H476.801V154.66H475.041V156.16H476.801V162.74C476.801 164.64 477.501 165 479.261 165H480.561V163.5H479.781C478.721 163.5 478.501 163.36 478.501 162.58V156.16H480.561V154.66H478.501V151.56ZM483.19 165H484.89V160.4C484.89 157.78 485.89 156.22 488.63 156.22V154.42C486.79 154.36 485.65 155.18 484.83 156.84H484.79V154.66H483.19V165ZM497.11 161.4C497.11 162.34 496.19 163.74 493.95 163.74C492.91 163.74 491.95 163.34 491.95 162.22C491.95 160.96 492.91 160.56 494.03 160.36C495.17 160.16 496.45 160.14 497.11 159.66V161.4ZM499.87 163.64C499.65 163.72 499.49 163.74 499.35 163.74C498.81 163.74 498.81 163.38 498.81 162.58V157.26C498.81 154.84 496.79 154.42 494.93 154.42C492.63 154.42 490.65 155.32 490.55 157.88H492.25C492.33 156.36 493.39 155.92 494.83 155.92C495.91 155.92 497.13 156.16 497.13 157.64C497.13 158.92 495.53 158.8 493.65 159.16C491.89 159.5 490.15 160 490.15 162.34C490.15 164.4 491.69 165.24 493.57 165.24C495.01 165.24 496.27 164.74 497.21 163.64C497.21 164.76 497.77 165.24 498.65 165.24C499.19 165.24 499.57 165.14 499.87 164.96V163.64ZM504.612 151.56H502.912V154.66H501.152V156.16H502.912V162.74C502.912 164.64 503.612 165 505.372 165H506.672V163.5H505.892C504.832 163.5 504.612 163.36 504.612 162.58V156.16H506.672V154.66H504.612V151.56ZM516.501 161.72C516.201 163.06 515.221 163.74 513.821 163.74C511.561 163.74 510.541 162.14 510.601 160.34H518.341C518.441 157.84 517.321 154.42 513.661 154.42C510.841 154.42 508.801 156.7 508.801 159.8C508.901 162.96 510.461 165.24 513.761 165.24C516.081 165.24 517.721 164 518.181 161.72H516.501ZM510.601 158.84C510.721 157.26 511.781 155.92 513.561 155.92C515.241 155.92 516.461 157.22 516.541 158.84H510.601ZM525.063 163.62C522.823 163.62 522.143 161.54 522.143 159.68C522.143 157.7 523.023 155.92 525.203 155.92C527.343 155.92 528.143 157.8 528.143 159.62C528.143 161.56 527.303 163.62 525.063 163.62ZM529.823 154.66H528.223V156.14H528.203C527.583 155 526.423 154.42 525.123 154.42C521.543 154.42 520.343 157.44 520.343 159.88C520.343 162.7 521.883 165.12 524.963 165.12C526.263 165.12 527.623 164.5 528.183 163.24H528.223V163.92C528.223 166.24 527.343 167.84 525.123 167.84C524.003 167.84 522.523 167.4 522.443 166.16H520.743C520.843 168.42 523.083 169.2 525.023 169.2C528.283 169.2 529.823 167.48 529.823 164.12V154.66ZM541.747 154.66H539.947L537.047 163.12H537.007L533.987 154.66H532.067L536.167 164.94L535.467 166.7C535.147 167.3 534.767 167.64 534.067 167.64C533.727 167.64 533.387 167.5 533.067 167.4V168.96C533.447 169.1 533.847 169.14 534.247 169.14C535.767 169.14 536.467 168.4 537.247 166.38L541.747 154.66Z"
          fill="white"/>
    <path d="M480.298 60.7468V82.2206C480.298 84.4393 482.12 86.2617 484.339 86.2617H517.223C519.442 86.2617 521.264 84.4393 521.264 82.2206V57.498"
          stroke="white" stroke-width="1.5" stroke-miterlimit="10" stroke-linejoin="round"/>
    <path d="M485.448 57.418H478V53.4561H523.642V57.418H492.263" stroke="white" stroke-width="1.5"
          stroke-miterlimit="10" stroke-linecap="round" stroke-linejoin="round"/>
    <path d="M500.821 101V90.3027" stroke="white" stroke-width="1.5" stroke-miterlimit="10" stroke-linecap="round"
          stroke-linejoin="round"/>
    <path d="M510.171 64.5498L515.401 69.7796" stroke="white" stroke-width="1.5" stroke-miterlimit="10"
          stroke-linecap="round" stroke-linejoin="round"/>
    <path d="M510.171 69.7796L515.401 64.5498" stroke="white" stroke-width="1.5" stroke-miterlimit="10"
          stroke-linecap="round" stroke-linejoin="round"/>
    <path d="M495.592 75.6436L500.822 80.8733" stroke="white" stroke-width="1.5" stroke-miterlimit="10"
          stroke-linecap="round" stroke-linejoin="round"/>
    <path d="M495.592 80.8733L500.822 75.6436" stroke="white" stroke-width="1.5" stroke-miterlimit="10"
          stroke-linecap="round" stroke-linejoin="round"/>
    <path d="M486.399 66.3721C486.399 68.2738 487.905 69.7794 489.807 69.7794C491.708 69.7794 493.214 68.2738 493.214 66.3721C493.214 64.4704 491.708 62.9648 489.807 62.9648C487.905 62.9648 486.399 64.4704 486.399 66.3721Z"
          stroke="white" stroke-width="1.5" stroke-miterlimit="10" stroke-linecap="round" stroke-linejoin="round"/>
    <path d="M497.652 66.6895C497.652 66.6895 507.795 69.3836 508.508 79.4469" stroke="white" stroke-width="1.5"
          stroke-miterlimit="10" stroke-linecap="round" stroke-linejoin="round"/>
    <path d="M497.335 66.6895L499.237 70.7306" stroke="white" stroke-width="1.5" stroke-miterlimit="10"
          stroke-linecap="round" stroke-linejoin="round"/>
    <path d="M497.335 66.6093L501.376 64.9453" stroke="white" stroke-width="1.5" stroke-miterlimit="10"
          stroke-linecap="round" stroke-linejoin="round"/>
    <path d="M500.821 53.2187V51" stroke="white" stroke-width="1.5" stroke-miterlimit="10" stroke-linecap="round"
          stroke-linejoin="round"/>
    <path d="M500.742 93.6299L492.422 100.999" stroke="white" stroke-width="1.5" stroke-miterlimit="10"
          stroke-linecap="round" stroke-linejoin="round"/>
    <path d="M500.821 93.6299L509.141 100.999" stroke="white" stroke-width="1.5" stroke-miterlimit="10"
          stroke-linecap="round" stroke-linejoin="round"/>
    <path d="M82.3146 238.067C86.3977 311.81 126.115 376.025 184.639 413.886" stroke="white" stroke-miterlimit="10"/>
    <path d="M77.1173 246.976C77.3648 247.1 77.7359 246.976 77.9834 246.729L82.4377 238.315L88.1292 245.863C88.3767 246.11 88.7478 246.234 88.9953 245.987C89.2427 245.739 89.3665 245.368 89.119 245.12L82.8088 236.831C82.6851 236.707 82.4376 236.583 82.3139 236.583C82.1902 236.583 81.9427 236.707 81.819 236.954L76.9936 246.234C76.9936 246.358 76.8698 246.481 76.8698 246.605C76.8698 246.729 76.9936 246.853 77.1173 246.976Z"
          fill="white"/>
    <path d="M407.473 25.0044C377.035 9.66197 342.762 1.00093 306.386 1.00093C269.515 1.00093 234.623 9.90942 203.938 25.623"
          stroke="white" stroke-miterlimit="10"/>
    <path d="M402.4 15.9721C402.153 16.0958 402.029 16.5908 402.153 16.8382L407.226 24.8806L397.822 25.9942C397.451 25.9942 397.204 26.3654 397.327 26.7366C397.327 27.1078 397.699 27.3552 398.07 27.2315L408.463 25.9942C408.711 25.9942 408.834 25.8704 408.958 25.623C409.082 25.3755 409.082 25.2518 408.958 25.0043L403.39 16.0959C403.266 15.9721 403.266 15.9721 403.143 15.8484C402.895 15.8484 402.648 15.8484 402.4 15.9721Z"
          fill="white"/>
    <path d="M429.498 413.144C487.651 374.911 526.997 310.448 530.585 236.706" stroke="white" stroke-miterlimit="10"/>
    <path d="M439.768 413.143C439.768 412.772 439.52 412.525 439.149 412.525L429.746 412.896L433.457 404.235C433.581 403.864 433.457 403.616 433.086 403.369C432.715 403.245 432.468 403.369 432.22 403.74L428.137 413.391C428.013 413.638 428.137 413.762 428.137 414.009C428.137 414.257 428.508 414.257 428.632 414.257L439.025 413.886C439.149 413.886 439.273 413.886 439.396 413.762C439.644 413.514 439.768 413.391 439.768 413.143Z"
          fill="white"/>
    <defs>
        <linearGradient id="paint0_linear" x1="111.767" y1="224" x2="111.767" y2="1.53489"
                        gradientUnits="userSpaceOnUse">
            <stop stop-color="white"/>
            <stop offset="1" stop-color="white" stop-opacity="0"/>
        </linearGradient>
        <linearGradient id="paint1_linear" x1="305.767" y1="561" x2="305.767" y2="338.535"
                        gradientUnits="userSpaceOnUse">
            <stop stop-color="white"/>
            <stop offset="1" stop-color="white" stop-opacity="0"/>
        </linearGradient>
        <linearGradient id="paint2_linear" x1="500.767" y1="224" x2="500.767" y2="1.53489"
                        gradientUnits="userSpaceOnUse">
            <stop stop-color="white"/>
            <stop offset="1" stop-color="white" stop-opacity="0"/>
        </linearGradient>
    </defs>
</svg>
