<svg width="121" height="22" viewBox="0 0 121 22" fill="none" xmlns="http://www.w3.org/2000/svg">
<path fill-rule="evenodd" clip-rule="evenodd" d="M118.563 0.324707C117.722 0.324707 117.01 0.971889 117.01 1.84934C117.01 2.73512 117.721 3.38231 118.563 3.38231C119.396 3.38231 120.109 2.73512 120.109 1.84934C120.109 0.971889 119.396 0.324707 118.563 0.324707ZM118.563 3.12831C117.863 3.12831 117.318 2.58632 117.318 1.84998C117.318 1.12583 117.863 0.579985 118.563 0.579985C119.255 0.579985 119.801 1.12583 119.801 1.84998C119.801 2.58632 119.255 3.12831 118.563 3.12831Z" fill="black"/>
<path fill-rule="evenodd" clip-rule="evenodd" d="M118.81 1.95871C119.069 1.926 119.267 1.78874 119.267 1.47317C119.267 1.12552 119.061 0.971581 118.645 0.971581H117.973V2.73546H118.24V1.9709H118.547L119.013 2.73546H119.313L118.81 1.95871ZM118.241 1.74448V1.19864H118.604C118.79 1.19864 118.988 1.23841 118.988 1.45713C118.988 1.72781 118.787 1.74448 118.56 1.74448H118.241ZM55.1424 6.07721H46.5308C46.3793 6.07721 46.2341 6.01703 46.1269 5.90991C46.0198 5.8028 45.9596 5.65752 45.9596 5.50603C45.9596 5.35455 46.0198 5.20927 46.1269 5.10215C46.2341 4.99504 46.3793 4.93486 46.5308 4.93486H57.7933V0.217285H44.8446C42.6663 0.217285 40.8999 2.05941 40.8999 4.23829V6.85075C40.8999 7.89694 41.3155 8.90029 42.0552 9.64006C42.795 10.3798 43.7984 10.7954 44.8446 10.7954H52.9238C53.0752 10.7954 53.2204 10.8556 53.3274 10.9626C53.4345 11.0697 53.4946 11.2149 53.4946 11.3663C53.4946 11.5177 53.4345 11.6629 53.3274 11.7699C53.2204 11.877 53.0752 11.9371 52.9238 11.9371H41.7741V16.6553H55.1424C55.6604 16.6553 56.1734 16.5533 56.652 16.3551C57.1305 16.1568 57.5654 15.8663 57.9317 15.5C58.298 15.1337 58.5886 14.6988 58.7868 14.2202C58.985 13.7416 59.0871 13.2287 59.0871 12.7107V10.0989C59.0877 7.91934 57.3213 6.07721 55.1424 6.07721ZM33.2895 0.217285H27.7721L19.8956 16.6547H26.1744L26.9351 14.828L34.0714 14.8113L34.8494 16.6547H41.1282L33.2895 0.217285ZM32.0721 10.1104H28.9138L30.5122 6.38188L32.1177 10.1848L32.0721 10.1104ZM91.1255 0.217285H85.6081L77.7322 16.6547H84.0097L84.7717 14.828L91.9074 14.8113L92.6854 16.6547H98.9642L91.1255 0.217285ZM89.9081 10.1104H86.7498L88.3482 6.38188L89.9594 10.1989L89.9081 10.1104ZM77.1986 1.43532C76.2102 0.293609 74.2808 0.217926 72.481 0.217926H60.5335V16.6124L60.511 16.6329L72.481 16.6553C74.2814 16.6553 76.2102 16.5797 77.1986 15.438C78.1883 14.2969 78.416 13.6875 78.416 8.43696C78.416 3.18637 78.1883 2.57639 77.1986 1.43532ZM72.556 10.2323C72.556 10.8378 72.066 11.3278 71.4612 11.3278H66.1945V5.54484H71.4612C72.066 5.54484 72.556 6.03552 72.556 6.64037V10.2323ZM13.579 8.20798L5.43693 0.217285H0.109375V16.6547H5.74096V8.74099L13.579 16.6547H19.2112V0.217285H13.579V8.20798ZM114.793 15.4373C115.783 14.2962 116.01 13.6869 116.01 8.43632C116.01 3.18573 115.783 2.57639 114.793 1.43532C113.803 0.293609 111.875 0.217926 110.075 0.217926H104.443C102.643 0.217926 100.715 0.294251 99.7255 1.43532C98.7371 2.57639 98.5082 3.18573 98.5082 8.43632C98.5082 13.6869 98.7371 14.2962 99.7255 15.4373C100.715 16.579 102.643 16.6547 104.443 16.6547H110.15V21.6776H115.783V16.6547L111.667 16.6483C112.926 16.5566 114.094 16.2436 114.793 15.4373ZM110.15 9.69989C110.15 10.3047 109.66 10.7954 109.056 10.7954H105.462C105.172 10.7953 104.893 10.6798 104.688 10.4743C104.483 10.2689 104.367 9.99034 104.367 9.69989V6.63973C104.367 6.03488 104.857 5.5442 105.462 5.5442H109.056C109.66 5.5442 110.15 6.03424 110.15 6.63973V9.69989Z" fill="black"/>
</svg>
