<svg width="121" height="28" viewBox="0 0 121 28" fill="none" xmlns="http://www.w3.org/2000/svg">
<path d="M118.028 0.966797L111.473 14.99L109.008 9.67649H106.342L110.395 18.3679H112.55L120.675 0.966797H118.028Z" fill="#D52B1E"/>
<path d="M89.909 27.0046H95.186V17.3454C95.186 15.1361 96.4641 13.584 98.3631 13.584C100.189 13.584 101.139 14.8622 101.139 16.7064V27.0046H106.415V15.7021C106.415 11.8676 104.115 9.16527 100.39 9.16527C98.0162 9.16527 96.3546 10.1878 95.1129 12.0502H95.0034V9.67653H89.8908L89.909 27.0046ZM79.5377 9.20179C74.0234 9.20179 70.3351 13.1641 70.3351 18.3862C70.3351 23.5719 74.0234 27.5707 79.5377 27.5707C85.0521 27.5707 88.7404 23.5719 88.7404 18.3862C88.7587 13.1641 85.0521 9.20179 79.5377 9.20179ZM79.5012 23.6632C76.9997 23.6632 75.6668 21.5633 75.6668 18.3862C75.6668 15.1726 76.9814 13.1093 79.5012 13.1093C82.0028 13.1093 83.3905 15.1726 83.3905 18.3862C83.4087 21.5633 82.021 23.6632 79.5012 23.6632ZM55.2894 27.0046H70.1159V22.8415H61.7167V22.7319L69.7507 13.7301V9.65827H55.2894V13.8397H63.4148V13.9492L55.2894 23.0241V27.0046ZM48.5152 27.0046H53.8286V9.67653H48.5152V27.0046ZM36.1901 27.0046H41.4853V19.0436C41.4853 15.4282 43.6582 13.8214 46.9631 14.2779H47.0727V9.71305C46.7988 9.60349 46.4884 9.58523 45.9954 9.58523C43.9321 9.58523 42.5444 10.5347 41.3575 12.5615H41.248V9.67653H36.1901V27.0046ZM26.4762 23.6814C24.139 23.6814 22.7148 22.1659 22.4409 19.8287H34.9302C34.9668 16.1038 33.9808 13.1275 31.9175 11.2651C30.4567 9.9139 28.5395 9.16527 26.0927 9.16527C20.8706 9.16527 17.2552 13.1275 17.2552 18.3132C17.2552 23.5353 20.7062 27.5159 26.4397 27.5159C28.6125 27.5159 30.3289 26.9316 31.7531 25.9638C33.2687 24.9231 34.3642 23.3893 34.6564 21.8737H29.5803C29.0873 23.0058 28.0282 23.6814 26.4762 23.6814ZM26.2023 12.9449C28.0647 12.9449 29.3429 14.3327 29.562 16.3594H22.4774C22.8974 14.3144 24.0112 12.9449 26.2023 12.9449ZM6.70135 27.0046H12.2522L18.2778 9.67653H12.9643L9.58632 20.8147H9.51329L6.13531 9.67653H0.675781L6.70135 27.0046ZM48.5152 3.50488H53.8286V8.21579H48.5152V3.50488Z" fill="black"/>
</svg>
