<svg width="121" height="44" viewBox="0 0 121 44" fill="none" xmlns="http://www.w3.org/2000/svg">
<path fill-rule="evenodd" clip-rule="evenodd" d="M0.794922 0.287598H22.1502V29.5525L0.794922 34.4123V0.287598Z" fill="#325190"/>
<path fill-rule="evenodd" clip-rule="evenodd" d="M9.49585 19.7223C6.79259 21.2602 3.85205 22.3372 0.794922 22.909V0.287598H22.1509V3.79287C20.0936 10.5093 15.573 16.1995 9.49585 19.7223Z" fill="#325190"/>
<path fill-rule="evenodd" clip-rule="evenodd" d="M9.49585 19.7223C6.79259 21.2602 3.85205 22.3372 0.794922 22.909V0.287598H22.1509V3.79287C20.0936 10.5093 15.573 16.1995 9.49585 19.7223Z" fill="#325190"/>
<path fill-rule="evenodd" clip-rule="evenodd" d="M7.80041 16.8975C5.62326 18.1759 3.25952 19.1058 0.794922 19.6535V0.287598H19.7641C19.0813 3.75354 17.6591 7.03147 15.5945 9.89788C13.5299 12.7643 10.8715 15.1518 7.80041 16.8975Z" fill="#32609E"/>
<path fill-rule="evenodd" clip-rule="evenodd" d="M6.33155 14.4115C4.59767 15.4033 2.73427 16.1491 0.794922 16.6275V0.287598H16.6852C15.422 6.01896 11.8479 11.2334 6.33155 14.4115Z" fill="#2E6CAA"/>
<path fill-rule="evenodd" clip-rule="evenodd" d="M4.74976 11.5867C3.5024 12.306 2.17508 12.8768 0.794922 13.2872V0.287598H13.3761C12.1635 4.88963 9.18818 9.02618 4.74976 11.5867Z" fill="#3079B7"/>
<path fill-rule="evenodd" clip-rule="evenodd" d="M3.16797 8.98781C2.4093 9.41926 1.61545 9.78567 0.794922 10.0831V0.287598H10.2118C9.0796 3.82545 6.67397 6.96949 3.16797 8.98781Z" fill="#3681BE"/>
<path fill-rule="evenodd" clip-rule="evenodd" d="M1.81205 6.38962C1.47759 6.57856 1.13734 6.75014 0.794922 6.90578V0.287598H7.08444C6.06497 2.85772 4.20704 5.00801 1.81205 6.38962Z" fill="#3A87C3"/>
<path fill-rule="evenodd" clip-rule="evenodd" d="M3.47057 0.287598C2.79617 1.42121 1.88317 2.39449 0.794922 3.13989V0.287598H3.47057Z" fill="#3C8DCB"/>
<path fill-rule="evenodd" clip-rule="evenodd" d="M49.0438 43.5644L39.8912 22.5472V43.5644H34.9199V16.8976H42.9425L51.3032 36.1057V16.8976H56.1623V43.5644H49.0438ZM72.8851 33.3939V43.5644H67.1233V33.3939L58.4224 16.8976H64.6366L70.5128 28.6492L76.2745 16.8976H81.6982L72.8851 33.3939ZM104.184 43.5644V16.8976H120.342V20.7395H109.721V27.858H119.439V31.6999H109.721V39.8361H120.795V43.5644H104.184ZM90.6257 43.9024C88.0056 43.8926 85.4065 43.434 82.9412 42.5465V38.5931C85.315 39.4966 87.5744 39.9476 89.9474 39.9476C93.1117 39.8361 94.4676 38.8176 94.5806 36.5582C94.5806 34.5246 93.1117 33.8463 89.0439 31.8128C85.0891 29.8915 82.6039 28.4226 82.4902 24.129C82.3773 19.4965 86.3321 16.5581 91.9817 16.5581C94.5806 16.5581 96.727 17.1228 98.5354 17.8011V21.7559C96.5005 20.9647 94.5806 20.4 92.5463 20.4C89.7215 20.4 88.0275 21.3042 87.9146 23.3384C87.9146 25.372 89.1576 25.9366 92.8859 27.6321C98.4225 30.1181 100.116 32.2645 100.004 36.1064C100.003 40.4001 96.6134 43.7895 90.6257 43.9024Z" fill="#325190"/>
</svg>
