<svg width="101" height="41" viewBox="0 0 101 41" fill="none" xmlns="http://www.w3.org/2000/svg">
<path d="M100.168 20.5423C100.168 19.9616 100.136 19.381 100.103 18.8326C100.071 18.2842 99.9744 17.7036 99.9099 17.1552H92.0712H84.2325L81.8454 20.8971L79.4583 24.6391H91.5551C90.8454 27.0907 89.4583 29.1874 87.5873 30.6713C85.7164 32.1552 83.3615 33.0584 80.6196 33.0584C77.2002 33.0584 74.168 31.6391 71.9422 29.3487C69.7164 27.0584 68.3615 23.9294 68.3615 20.4778C68.3615 17.0907 69.7164 13.9939 71.9744 11.7358C74.2002 9.47777 77.297 8.0584 80.7164 8.0584C82.2002 8.0584 83.5873 8.28421 84.8776 8.73582C86.168 9.15518 87.3293 9.80035 88.3615 10.5745L90.4583 7.2197L92.5551 3.86485C90.9422 2.73582 89.1357 1.8326 87.1357 1.25196C85.168 0.639052 83.0067 0.348723 80.7486 0.348723C77.7163 0.348723 74.9744 0.897117 72.5551 1.89712C70.1357 2.89712 67.9744 4.34873 66.168 6.15518C61.8776 10.4455 60.6518 14.8003 59.8131 18.7681C58.9422 22.7681 58.4583 26.4133 55.5228 29.3165C54.297 30.5423 52.9744 31.4778 51.4906 32.0907C50.0067 32.7036 48.426 33.0262 46.7164 33.0262C43.2002 33.0262 40.0389 31.5746 37.7164 29.2842C35.426 26.9939 34.0067 23.8649 34.0067 20.4778C34.0067 17.1552 35.426 14.0584 37.7164 11.7681C40.0067 9.47776 43.168 8.02615 46.7164 7.99389C48.2002 8.02615 49.5551 8.25196 50.8131 8.63905C52.0712 9.02615 53.2325 9.63906 54.2647 10.4132L56.3938 7.05841L58.5228 3.70356C56.9099 2.57453 55.1035 1.70356 53.1357 1.12292C51.168 0.54227 49.0067 0.251953 46.7486 0.251953C43.2647 0.251953 40.0067 1.09066 37.168 2.57453C34.3293 4.0584 31.9099 6.15518 30.0712 8.67131C29.3615 6.44551 27.8776 4.54227 25.8454 3.21969C23.8131 1.86485 21.2325 1.09067 18.3293 1.09067H9.23248H0.167969V20.5423V39.9294H20.168C22.6841 39.9294 24.9422 39.3165 26.8131 38.2842C28.6841 37.252 30.168 35.7681 31.2002 34.0262C33.0712 36.0907 35.3293 37.7681 37.9099 38.9294C40.4905 40.0907 43.3615 40.7358 46.4583 40.7358C50.0712 40.7358 53.3938 39.8971 56.2647 38.381C59.1357 36.8649 61.5551 34.7036 63.426 32.0262C65.2002 34.6713 67.6196 36.8326 70.5228 38.3488C73.3938 39.8649 76.7809 40.7358 80.3938 40.7358C85.9744 40.7358 90.9099 38.4778 94.4583 34.8004C98.0067 31.1875 100.168 26.1229 100.168 20.5423ZM8.58732 16.8326V8.34873H18.168C19.3938 8.34873 20.4583 8.80034 21.2325 9.54228C22.0067 10.2842 22.4905 11.3487 22.4905 12.5745C22.4905 13.8003 22.0067 14.8649 21.2325 15.6068C20.4583 16.381 19.3615 16.8326 18.168 16.8326H13.3938H8.58732ZM8.58732 32.7358V23.9294H20.0712C21.3615 23.9294 22.4905 24.4133 23.3293 25.1874C24.168 25.9616 24.6841 27.0584 24.6841 28.3165C24.6841 29.5745 24.168 30.6713 23.3293 31.4778C22.4905 32.2842 21.3615 32.7681 20.0712 32.7681H14.3293H8.58732V32.7358Z" fill="#007254"/>
</svg>
