<svg width="120" height="31" viewBox="0 0 120 31" fill="none" xmlns="http://www.w3.org/2000/svg">
<path d="M77.0959 19.726C76.7671 19.8082 75.6986 20.137 75.3699 20.3014C75.3699 21.2877 75.2055 25.8082 75.2055 25.8082C75.1233 27.863 74.2192 29.2603 71.8356 30.2466L70.9315 30C72.0822 29.3425 72.6575 28.6849 72.7397 28.1918C72.9863 27.5342 73.0685 25.9726 73.0685 23.1781C73.0685 23.1781 73.0685 21.0411 72.9863 20.3014C72.6575 20.2192 71.1781 19.8904 70.6849 19.8082V19.1507C71.589 19.1507 73.726 19.2329 74.4658 19.2329C75.2877 19.2329 76.274 19.2329 77.0959 19.1507V19.726ZM115.479 21.0411C115.315 21.1233 114.822 21.2055 114.329 21.2877C114.329 22.0274 114.411 27.3699 114.411 28.6027C114.411 28.7671 114.247 28.8493 114 28.6849C112.849 27.5342 109.151 23.3425 107.918 21.863C107.918 22.8493 108 26.6301 108 27.2877C108.493 27.4521 109.562 27.6986 109.726 27.6986L109.808 28.4384H105.781V27.6986C106.192 27.5342 106.521 27.3699 106.932 27.2877C107.014 26.8767 107.014 21.6164 107.014 21.2055C106.685 21.2055 106.11 21.1233 105.699 21.1233V20.2192H108.658C109.726 21.4521 112.274 24.2466 113.589 25.726C113.589 24.4931 113.507 21.6164 113.507 21.1233C113.26 21.1233 112.767 21.0411 112.274 20.9589L112.192 20.2192C112.438 20.2192 113.836 20.3014 114.082 20.3014C114.329 20.3014 115.479 20.2192 115.726 20.2192L115.479 21.0411ZM93.6164 23.2603C93.6164 24.2466 92.7123 24.6575 91.6438 24.8219V25.5616C93.7808 25.3151 95.1781 24.4932 95.1781 23.1781V23.0959C95.1781 21.6164 94.1918 20.3014 91.8904 20.3014H87.4521L87.6164 21.1233C88.0274 21.2055 88.6027 21.2055 89.0137 21.2055C89.0137 22.1918 89.1781 26.3836 89.0959 27.6164C88.8493 27.6986 88.0274 27.863 87.6986 27.9452L87.6164 28.6849H92.7123V28.1096C92.3836 28.0274 91.2329 27.7808 90.9863 27.7808C90.9863 27.5342 90.9041 21.6164 90.9041 21.2877C91.3973 21.2877 92.2192 21.2877 92.5479 21.3699C93.4521 21.6164 93.6986 22.5205 93.6986 23.1781L93.6164 23.2603ZM33.3699 4.27397C32.7945 4.35616 30.3288 4.84932 29.5068 5.0137C28.6027 5.26027 20.2192 11.8356 19.6438 13.3973C19.5616 13.8904 19.6438 19.6438 19.6438 19.6438L24.411 19.9726L24.2466 21.5342C23.589 21.4521 19.1507 21.5342 16.3562 21.5342C14.9589 21.5342 10.6849 21.6986 9.20548 21.6164L9.36986 20.137C10.274 20.2192 11.6712 20.0548 12.4932 19.8082C13.3151 19.5616 13.9726 19.2329 13.9726 18.411V13.4795C13.6438 12.5753 6.65753 3.78082 4.84932 2.38356C4.35616 2.21918 0.821918 1.80822 0 1.64384L0.164383 0.164384H16.1918L15.9452 1.56164C15.2055 1.72603 11.8356 1.80822 10.9315 2.05479C13.2329 5.42466 16.8493 9.86301 18 11.5068C18.6575 10.6027 24.8219 6.24657 24.9863 4.93151C24.0822 4.76712 21.2055 4.35616 20.7123 4.35616L20.4658 2.87671H34.274L33.3699 4.27397ZM67.5616 17.0959C65.0137 16.9315 60.5753 17.0137 58.0274 17.0959L58.1918 15.7808C58.6027 15.7808 60.6575 15.4521 61.1507 15.3699V10.7671C59.9178 10.7671 52.8493 10.9315 51.7808 11.1781V15.2877C51.7808 15.2877 54.8219 15.6164 55.4795 15.6986L55.3151 17.0959C52.6027 16.9315 47.0959 16.9315 44.4658 17.0959L44.6301 15.6164C45.4521 15.6164 47.6712 15.3699 48.1644 15.2877C48.2466 14.3014 48.2466 12.6575 48.2466 11.0137V8.9589C48.2466 8.21918 48.2466 6.24657 48.1644 5.50685C47.589 5.50685 45.0411 5.26027 44.3836 5.26027L44.5479 3.94521C46.8493 4.10959 53.8356 4.10959 55.726 3.94521L55.5616 5.17808C54.9863 5.17808 52.5205 5.58904 51.7808 5.58904V9.20548H61.1507V3.86301C60.4932 3.78082 58.7671 3.45205 58.0274 3.36986L58.1918 2.13699C59.7534 2.21918 66 2.21918 67.6438 2.13699L67.5616 3.45205C67.0685 3.45205 65.2603 3.78082 64.6027 3.86301V15.5342C64.6027 15.5342 67.2329 15.863 67.8082 15.9452L67.5616 17.0959ZM114.822 18.4932L113.096 18.5753L113.425 15.6164L115.151 15.6986L116.795 15.6164L116.466 18.4932H114.822ZM116.795 13.2329H114.247V0H120L119.507 1.9726L116.795 13.2329Z" fill="#FF0132"/>
<path d="M78.4937 15.6985H77.1786C75.0416 15.6163 70.932 14.4656 70.932 10.767V10.4382C70.932 6.82179 75.0416 5.58891 77.1786 5.50672H78.4937C80.6307 5.58891 84.7403 6.7396 84.7403 10.4382V10.767C84.7403 14.3834 80.6307 15.6163 78.4937 15.6985ZM88.3567 10.5204C88.3567 6.32864 84.3293 3.78069 78.1649 3.61631H77.5074C71.0142 3.78069 67.3978 6.32864 67.3978 10.5204V10.6848C67.3978 14.63 71.343 17.4245 77.5074 17.5889H78.1649C84.3293 17.4245 88.2745 14.7944 88.3567 10.6848V10.5204ZM101.672 14.3012H99.8635C97.5622 14.1369 93.3704 12.7396 93.2882 8.79439C93.3704 4.84919 97.5622 3.53412 99.8635 3.36974H101.672C103.973 3.53412 108.165 4.84919 108.247 8.79439C108.247 12.7396 103.973 14.2191 101.672 14.3012ZM112.275 8.79439C112.11 4.35604 107.918 1.47932 101.096 1.31494H100.603C93.7814 1.47932 89.5074 4.10946 89.4252 8.7122V8.87658C89.5896 13.4793 93.7814 16.1917 100.603 16.356H101.096C107.836 16.1917 112.11 13.4793 112.275 8.79439C112.275 8.87658 112.275 8.87658 112.275 8.79439ZM33.3704 13.3971C33.617 12.8218 35.5896 8.54782 35.5896 8.54782L37.48 13.3971H33.3704ZM43.5622 18.9862C42.8225 17.8355 40.1923 11.178 38.9594 8.21905L41.1786 7.89028L41.4252 6.7396H38.0553C36.8225 6.7396 31.5622 6.7396 31.069 6.65741L30.9868 7.80809L33.617 8.46563C33.617 8.46563 29.754 16.1917 28.932 17.2601C28.2745 17.4245 26.5485 17.8355 25.8909 17.9177L25.7266 19.3149C26.2197 19.2327 33.0416 19.3149 33.6992 19.3149L33.8635 17.9999L31.48 17.4245C31.48 17.4245 32.5485 15.2054 32.7129 14.9588C33.4526 14.7944 37.8909 14.7122 37.8909 14.7122L39.4526 18.9862C39.4526 18.9862 37.5622 19.3149 36.8225 19.3149L36.6581 20.7122H46.4389L46.6033 19.4793C46.0279 19.5615 44.2197 19.0684 43.5622 18.9862ZM103.809 27.6163C102.905 25.7259 101.425 22.1095 101.014 21.1232L102.083 20.9588L102.165 20.219L97.8087 20.3834V20.9588L98.9594 21.1232C98.2197 22.767 96.2471 26.9588 95.9183 27.4519C95.5896 27.5341 95.2608 27.6985 94.932 27.7807L94.8499 28.4382C95.8362 28.356 98.0553 28.4382 98.3841 28.4382V27.8629L97.3156 27.5341C97.3156 27.5341 97.9731 25.8903 98.2197 25.3971H101.261L102.083 27.5341C102.083 27.5341 101.343 27.6985 100.768 27.7807L100.685 28.356H105.124L105.206 27.6985C104.713 27.8629 103.809 27.6163 103.809 27.6163ZM98.4663 24.8218C98.6307 24.4108 99.7814 21.6985 99.7814 21.6985L101.014 24.8218H98.4663ZM85.48 27.6163C84.9046 26.4656 83.4252 22.8492 82.6855 21.1232L83.8361 20.8766V20.219L79.3978 20.3834V20.9588L80.5485 21.1232C79.8088 22.767 77.8361 26.9588 77.5074 27.4519C77.1786 27.6163 76.8498 27.6985 76.5211 27.7807L76.4389 28.4382H79.9731V27.8629L78.9046 27.5341C78.9046 27.5341 79.5622 25.8903 79.8088 25.3971H82.8498L83.6718 27.5341C83.6718 27.5341 82.932 27.6985 82.3567 27.7807L82.2745 28.356H86.7129L86.7951 27.6985C86.3841 27.8629 85.48 27.6163 85.48 27.6163ZM80.1375 24.8218C80.3019 24.4108 81.4526 21.6985 81.4526 21.6985L82.6855 24.8218H80.1375Z" fill="#FF0132"/>
</svg>
